<svg width="48" height="48" viewBox="0 0 48 48" fill="none" xmlns="http://www.w3.org/2000/svg">
<path d="M0 24C0 10.7452 10.7452 0 24 0C37.2548 0 48 10.7452 48 24C48 37.2548 37.2548 48 24 48C10.7452 48 0 37.2548 0 24Z" fill="white"/>
<path d="M18.9806 16.5C19.6733 16.5 20.3128 16.5533 20.8989 16.7131C21.4851 16.8197 21.9646 17.0329 22.3909 17.2993C22.8172 17.5657 23.137 17.9387 23.3501 18.4183C23.5633 18.8979 23.6698 19.4841 23.6698 20.1235C23.6698 20.8695 23.51 21.509 23.137 21.9885C22.8172 22.4681 22.2844 22.8944 21.6449 23.2141C22.5508 23.4806 23.2435 23.9602 23.6698 24.5996C24.0961 25.239 24.3626 26.0384 24.3626 26.9442C24.3626 27.6902 24.2027 28.3297 23.9363 28.8626C23.6698 29.3954 23.2435 29.875 22.764 30.1947C22.2844 30.5144 21.6982 30.7809 21.0588 30.9407C20.4193 31.1006 19.7799 31.2072 19.1404 31.2072H12V16.5H18.9806ZM18.5543 22.4681C19.1404 22.4681 19.62 22.3083 19.993 22.0418C20.366 21.7754 20.5259 21.2958 20.5259 20.7097C20.5259 20.3899 20.4726 20.0702 20.366 19.8571C20.2595 19.6439 20.0996 19.4841 19.8865 19.3242C19.6733 19.2176 19.4602 19.1111 19.1937 19.0578C18.9273 19.0045 18.6609 19.0045 18.3411 19.0045H15.2505V22.4681H18.5543ZM18.7141 28.756C19.0339 28.756 19.3536 28.7027 19.62 28.6494C19.8865 28.5961 20.1529 28.4895 20.366 28.3297C20.5792 28.1698 20.739 28.01 20.8989 27.7435C21.0055 27.4771 21.1121 27.1574 21.1121 26.7844C21.1121 26.0384 20.8989 25.5055 20.4726 25.1325C20.0463 24.8128 19.4602 24.6529 18.7674 24.6529H15.2505V28.756H18.7141ZM28.9985 28.7027C29.4248 29.129 30.0643 29.3421 30.9168 29.3421C31.503 29.3421 32.0359 29.1823 32.4622 28.9158C32.8885 28.5961 33.1549 28.2764 33.2615 27.9567H35.8725C35.4462 29.2356 34.8068 30.1414 33.9542 30.7276C33.1016 31.2605 32.0892 31.5802 30.8636 31.5802C30.011 31.5802 29.2649 31.4203 28.5722 31.1539C27.8795 30.8875 27.3466 30.5144 26.867 29.9816C26.3875 29.502 26.0144 28.9158 25.8013 28.2231C25.5349 27.5304 25.4283 26.7844 25.4283 25.9318C25.4283 25.1325 25.5349 24.3865 25.8013 23.6937C26.0677 23.001 26.4407 22.4148 26.9203 21.882C27.3999 21.4024 27.9861 20.9761 28.6255 20.7097C29.3182 20.4432 30.011 20.2834 30.8636 20.2834C31.7694 20.2834 32.5687 20.4432 33.2615 20.8162C33.9542 21.1892 34.4871 21.6155 34.9134 22.255C35.3397 22.8411 35.6594 23.5339 35.8725 24.2799C35.9791 25.0259 36.0324 25.7719 35.9791 26.6245H28.2525C28.2525 27.4771 28.5722 28.2764 28.9985 28.7027ZM32.3556 23.1076C31.9826 22.7346 31.3964 22.5214 30.7037 22.5214C30.2241 22.5214 29.8511 22.628 29.5314 22.7879C29.2117 22.9477 28.9985 23.1609 28.7854 23.374C28.5722 23.5872 28.4656 23.8536 28.4124 24.12C28.3591 24.3865 28.3058 24.5996 28.3058 24.8128H33.1016C32.995 24.0135 32.7286 23.4806 32.3556 23.1076ZM27.6663 17.5125H33.6345V18.9512H27.6663V17.5125Z" fill="#00136C"/>
</svg>
