<svg width="48" height="48" viewBox="0 0 48 48" fill="none" xmlns="http://www.w3.org/2000/svg">
<path d="M0 24C0 37.2548 10.7452 48 24 48C37.2548 48 48 37.2548 48 24C48 10.7452 37.2548 0 24 0C10.7452 0 0 10.7452 0 24Z" fill="white"/>
<path d="M24 12C17.376 12 12 17.376 12 24C12 30.624 17.376 36 24 36C30.6 36 36 30.624 36 24C36 17.376 30.6 12 24 12ZM31.92 17.52C33.36 19.272 34.2 21.48 34.248 23.904C33.912 23.832 30.528 23.16 27.12 23.568C27.048 23.4 26.976 23.208 26.904 23.04C26.688 22.536 26.472 22.032 26.232 21.552C29.976 20.04 31.704 17.808 31.92 17.52ZM24 13.776C26.592 13.776 28.992 14.76 30.792 16.344C30.6 16.608 29.064 18.672 25.416 20.04C23.736 16.944 21.864 14.424 21.6 14.04C22.368 13.872 23.16 13.776 24 13.776ZM19.632 14.736C19.896 15.096 21.72 17.64 23.424 20.664C18.624 21.936 14.4 21.912 13.944 21.912C14.64 18.72 16.776 16.08 19.632 14.736ZM13.752 24.024C13.752 23.928 13.752 23.808 13.752 23.712C14.184 23.736 19.176 23.784 24.288 22.248C24.576 22.824 24.864 23.4 25.128 24C25.008 24.048 24.864 24.072 24.72 24.12C19.44 25.824 16.632 30.48 16.392 30.864C14.736 29.04 13.752 26.64 13.752 24.024ZM24 34.248C21.624 34.248 19.44 33.432 17.712 32.088C17.904 31.704 19.968 27.696 25.752 25.68C25.776 25.656 25.8 25.656 25.824 25.656C27.264 29.4 27.864 32.52 28.008 33.432C26.784 33.96 25.416 34.248 24 34.248ZM29.712 32.496C29.616 31.872 29.064 28.872 27.72 25.2C30.936 24.696 33.744 25.536 34.104 25.632C33.648 28.488 32.016 30.96 29.712 32.496Z" fill="#00136C"/>
</svg>
