<svg width="48" height="48" viewBox="0 0 48 48" fill="none" xmlns="http://www.w3.org/2000/svg">
<path d="M0 24C0 37.2548 10.7452 48 24 48C37.2548 48 48 37.2548 48 24C48 10.7452 37.2548 0 24 0C10.7452 0 0 10.7452 0 24Z" fill="white"/>
<path d="M23.9998 13.8C27.2998 13.8 27.7498 13.8 29.0998 13.8C30.2998 13.8 30.8998 14.1 31.3498 14.25C31.9498 14.55 32.3998 14.7 32.8498 15.15C33.2998 15.6 33.5998 16.05 33.7498 16.65C33.8998 17.1 34.0498 17.7 34.1998 18.9C34.1998 20.25 34.1998 20.55 34.1998 24C34.1998 27.45 34.1998 27.75 34.1998 29.1C34.1998 30.3 33.8998 30.9 33.7498 31.35C33.4498 31.95 33.2998 32.4 32.8498 32.85C32.3998 33.3 31.9498 33.6 31.3498 33.75C30.8998 33.9 30.2998 34.05 29.0998 34.2C27.7498 34.2 27.4498 34.2 23.9998 34.2C20.5498 34.2 20.2498 34.2 18.8998 34.2C17.6998 34.2 17.0998 33.9 16.6498 33.75C16.0498 33.45 15.5998 33.3 15.1498 32.85C14.6998 32.4 14.3998 31.95 14.2498 31.35C14.0998 30.9 13.9498 30.3 13.7998 29.1C13.7998 27.75 13.7998 27.45 13.7998 24C13.7998 20.55 13.7998 20.25 13.7998 18.9C13.7998 17.7 14.0998 17.1 14.2498 16.65C14.5498 16.05 14.6998 15.6 15.1498 15.15C15.5998 14.7 16.0498 14.4 16.6498 14.25C17.0998 14.1 17.6998 13.95 18.8998 13.8C20.2498 13.8 20.6998 13.8 23.9998 13.8ZM23.9998 11.55C20.5498 11.55 20.2498 11.55 18.8998 11.55C17.5498 11.55 16.6498 11.85 15.8998 12.15C15.1498 12.45 14.3998 12.9 13.6498 13.65C12.8998 14.4 12.5998 15 12.1498 15.9C11.8498 16.65 11.6998 17.55 11.5498 18.9C11.5498 20.25 11.5498 20.7 11.5498 24C11.5498 27.45 11.5498 27.75 11.5498 29.1C11.5498 30.45 11.8498 31.35 12.1498 32.1C12.4498 32.85 12.8998 33.6 13.6498 34.35C14.3998 35.1 14.9998 35.4 15.8998 35.85C16.6498 36.15 17.5498 36.3 18.8998 36.45C20.2498 36.45 20.6998 36.45 23.9998 36.45C27.2998 36.45 27.7498 36.45 29.0998 36.45C30.4498 36.45 31.3498 36.15 32.0998 35.85C32.8498 35.55 33.5998 35.1 34.3498 34.35C35.0998 33.6 35.3998 33 35.8498 32.1C36.1498 31.35 36.2998 30.45 36.4498 29.1C36.4498 27.75 36.4498 27.3 36.4498 24C36.4498 20.7 36.4498 20.25 36.4498 18.9C36.4498 17.55 36.1498 16.65 35.8498 15.9C35.5498 15.15 35.0998 14.4 34.3498 13.65C33.5998 12.9 32.9998 12.6 32.0998 12.15C31.3498 11.85 30.4498 11.7 29.0998 11.55C27.7498 11.55 27.4498 11.55 23.9998 11.55Z" fill="#00136C"/>
<path d="M23.9998 17.55C20.3998 17.55 17.5498 20.4 17.5498 24C17.5498 27.6 20.3998 30.45 23.9998 30.45C27.5998 30.45 30.4498 27.6 30.4498 24C30.4498 20.4 27.5998 17.55 23.9998 17.55ZM23.9998 28.2C21.7498 28.2 19.7998 26.4 19.7998 24C19.7998 21.75 21.5998 19.8 23.9998 19.8C26.2498 19.8 28.1998 21.6 28.1998 24C28.1998 26.25 26.2498 28.2 23.9998 28.2Z" fill="#00136C"/>
<path d="M30.5998 18.9C31.4282 18.9 32.0998 18.2284 32.0998 17.4C32.0998 16.5716 31.4282 15.9 30.5998 15.9C29.7714 15.9 29.0998 16.5716 29.0998 17.4C29.0998 18.2284 29.7714 18.9 30.5998 18.9Z" fill="#00136C"/>
</svg>
