<svg width="48" height="48" viewBox="0 0 48 48" fill="none" xmlns="http://www.w3.org/2000/svg">
<circle cx="24" cy="24" r="24" fill="white"/>
<path d="M24 36C22.34 36 20.78 35.685 19.32 35.055C17.86 34.425 16.59 33.57 15.51 32.49C14.43 31.41 13.575 30.14 12.945 28.68C12.315 27.22 12 25.66 12 24C12 22.34 12.315 20.78 12.945 19.32C13.575 17.86 14.43 16.59 15.51 15.51C16.59 14.43 17.86 13.575 19.32 12.945C20.78 12.315 22.34 12 24 12C25.66 12 27.22 12.315 28.68 12.945C30.14 13.575 31.41 14.43 32.49 15.51C33.57 16.59 34.425 17.86 35.055 19.32C35.685 20.78 36 22.34 36 24C36 25.66 35.685 27.22 35.055 28.68C34.425 30.14 33.57 31.41 32.49 32.49C31.41 33.57 30.14 34.425 28.68 35.055C27.22 35.685 25.66 36 24 36ZM22.71 34.17V31.71C22.01 31.71 21.42 31.45 20.94 30.93C20.46 30.41 20.22 29.8 20.22 29.1V27.78L14.07 21.63C13.97 22.03 13.9 22.425 13.86 22.815C13.82 23.205 13.8 23.6 13.8 24C13.8 26.6 14.645 28.87 16.335 30.81C18.025 32.75 20.15 33.87 22.71 34.17ZM31.53 30.93C31.97 30.45 32.355 29.94 32.685 29.4C33.015 28.86 33.295 28.295 33.525 27.705C33.755 27.115 33.925 26.51 34.035 25.89C34.145 25.27 34.2 24.64 34.2 24C34.2 21.88 33.62 19.955 32.46 18.225C31.3 16.495 29.75 15.23 27.81 14.43V14.97C27.81 15.67 27.57 16.28 27.09 16.8C26.61 17.32 26.02 17.58 25.32 17.58H22.71V20.19C22.71 20.53 22.575 20.81 22.305 21.03C22.035 21.25 21.73 21.36 21.39 21.36H18.9V24H26.64C26.98 24 27.26 24.13 27.48 24.39C27.7 24.65 27.81 24.95 27.81 25.29V29.1H29.1C29.68 29.1 30.19 29.27 30.63 29.61C31.07 29.95 31.37 30.39 31.53 30.93Z" fill="#00136C"/>
</svg>
